<?xml version="1.0" encoding="UTF-8"?>
<svg version="1.1" xmlns="http://www.w3.org/2000/svg" width="512" height="512">
<path d="M0 0 C4.55063845 0.61457788 8.52245774 1.81489142 12.8125 3.4375 C23.91785223 7.48110674 34.31179387 8.96173428 46.1171875 9.17578125 C47.38433594 9.19962891 48.65148437 9.22347656 49.95703125 9.24804688 C52.56103308 9.29088439 55.16525078 9.322206 57.76953125 9.34179688 C72.971667 9.67362014 85.29578179 14.37697178 96.375 24.9375 C108.92619903 38.33398386 110.65253475 54.82421938 110.140625 72.42431641 C109.11985751 91.12066542 102.39836943 107.89096412 89 121 C86.92879313 122.71422412 84.83588627 124.31001035 82.62890625 125.84375 C80.85100913 127.03744869 80.85100913 127.03744869 79 129 C79.55929199 129.77077881 79.55929199 129.77077881 80.12988281 130.55712891 C81.83776978 132.91223189 83.54389667 135.26860461 85.25 137.625 C85.83652344 138.43324219 86.42304688 139.24148437 87.02734375 140.07421875 C96 152.47463132 96 152.47463132 96 155 C97.26062256 155.25813477 98.52124512 155.51626953 99.82006836 155.78222656 C105.29549954 157.00223778 110.56421504 158.70172261 115.87890625 160.484375 C116.89041245 160.82245178 117.90191864 161.16052856 118.94407654 161.5088501 C121.07030441 162.22230712 123.19562378 162.93847686 125.32006836 163.65722656 C128.5519762 164.74645324 131.79035617 165.81471131 135.02929688 166.8828125 C137.10460044 167.58204722 139.17948505 168.28252687 141.25390625 168.984375 C142.2124501 169.29711365 143.17099396 169.60985229 144.15858459 169.93206787 C151.52065727 172.46404519 158.29733617 175.60789492 162.46679688 182.49609375 C164.99842665 188.38305476 164.57075956 194.76888322 164.53125 201.0625 C164.5339504 202.42195919 164.53783735 203.78141649 164.54284668 205.14086914 C164.54871618 207.97854146 164.5402625 210.81570728 164.52148438 213.65332031 C164.49869517 217.27130968 164.51183219 220.88811181 164.53577423 224.50605774 C164.55030219 227.30986301 164.54559459 230.11339172 164.53526306 232.91720581 C164.53133748 234.8934609 164.54337998 236.86972721 164.55578613 238.84594727 C164.47127085 246.98911622 163.73838745 252.76316089 158.18359375 259.05859375 C157.60738281 259.51363281 157.03117187 259.96867187 156.4375 260.4375 C155.85871094 260.91058594 155.27992188 261.38367188 154.68359375 261.87109375 C149.58848107 265.28753822 142.84954435 264.50159136 137 264 C130.94212084 262.14662788 126.80846653 257.35583226 123.87548828 251.91333008 C122.61041994 247.70360878 122.75415478 243.69524951 122.8046875 239.32421875 C122.80893234 237.93648003 122.80893234 237.93648003 122.81326294 236.52070618 C122.82442608 233.57617058 122.84952363 230.63194312 122.875 227.6875 C122.88503479 225.68685336 122.89415977 223.68620194 122.90234375 221.68554688 C122.92435278 216.7902465 122.95885609 211.89517543 123 207 C122.26612061 206.80301514 121.53224121 206.60603027 120.77612305 206.40307617 C119.80199463 206.13986572 118.82786621 205.87665527 117.82421875 205.60546875 C116.86346436 205.34660889 115.90270996 205.08774902 114.9128418 204.82104492 C110.89164861 203.68758815 106.94803914 202.36257019 103 201 C102.95006393 201.61433395 102.90012787 202.22866791 102.84867859 202.86161804 C102.31886884 208.78718416 101.38706623 214.47029208 100.08203125 220.26953125 C99.71054228 222.00042682 99.34013293 223.73155439 98.97070312 225.46289062 C98.3951569 228.13743019 97.81310677 230.80980518 97.2121582 233.47875977 C96.62687221 236.09242679 96.07123853 238.71109786 95.51953125 241.33203125 C95.24626762 242.49675713 95.24626762 242.49675713 94.96748352 243.68501282 C93.52361886 250.74003443 94.64818386 256.99458335 96 264 C96.18225632 265.0129866 96.36451263 266.02597321 96.55229187 267.06965637 C97.10751049 270.13385706 97.68813612 273.19216136 98.27734375 276.25 C98.48935928 277.35174561 98.70137482 278.45349121 98.91981506 279.58862305 C99.36455276 281.89124183 99.81080944 284.19356772 100.25854492 286.49560547 C100.71379225 288.84534302 101.16458996 291.19594674 101.61108398 293.54736328 C102.26117732 296.97098232 102.9240037 300.39191301 103.58984375 303.8125 C103.78682358 304.86147461 103.98380341 305.91044922 104.18675232 306.99121094 C105.40168365 314.02650477 105.40168365 314.02650477 109 320 C111.42123789 321.14763227 113.5403703 321.96641798 116.078125 322.7265625 C117.14476631 323.07084038 117.14476631 323.07084038 118.23295593 323.42207336 C119.76695667 323.9151565 121.30359957 324.4000794 122.84249878 324.87765503 C126.1004061 325.88898604 129.34521022 326.93952463 132.59117126 327.9884491 C134.25920906 328.52720647 135.92788763 329.06398373 137.59718323 329.59883118 C145.76704882 332.22229657 153.85765394 335.05054206 161.9375 337.9375 C163.77973145 338.59129639 163.77973145 338.59129639 165.65917969 339.25830078 C167.98012112 340.08666206 170.2981596 340.9232156 172.61279297 341.76904297 C174.95249729 342.61932329 177.3012435 343.44498392 179.65673828 344.25048828 C180.82317871 344.66411621 181.98961914 345.07774414 183.19140625 345.50390625 C184.23627197 345.86427979 185.2811377 346.22465332 186.35766602 346.59594727 C189.73790052 348.392097 190.75693472 349.35297543 192 353 C191.62554992 361.2221527 187.90774778 369.22196329 185.02734375 376.8125 C184.53871721 378.115973 184.0507374 379.41968859 183.56336975 380.72363281 C182.28991806 384.12508681 181.00720492 387.52297427 179.72259521 390.92022705 C178.67183205 393.70377326 177.62767482 396.48977492 176.58383846 399.27592468 C174.42980515 405.02505025 172.27070745 410.77227594 170.10131836 416.515625 C169.71874374 417.52915039 169.33616913 418.54267578 168.94200134 419.58691406 C168 422 168 422 167 424 C167.55408539 423.99333817 168.10817078 423.98667633 168.67904663 423.97981262 C174.48730622 423.9130335 180.29545534 423.86802421 186.10400391 423.83520508 C188.26680945 423.82019232 190.42958493 423.79977584 192.59228516 423.77368164 C195.71524511 423.73696634 198.8377998 423.72019804 201.9609375 423.70703125 C202.91551849 423.69154739 203.87009949 423.67606354 204.85360718 423.66011047 C214.85579171 423.6576475 222.8693131 426.20802753 231 432 C232.299375 432.86625 232.299375 432.86625 233.625 433.75 C237.14380265 437.08360251 239.57490602 440.82086544 242 445 C242.41894531 445.71800781 242.83789062 446.43601562 243.26953125 447.17578125 C247.85051824 456.54818925 247.6298044 469.2506553 244.4375 479.0625 C239.92274424 489.37066612 231.85026601 497.8225138 221.40125847 502.16747284 C213.08706997 505.04825248 204.51908834 504.55276773 195.8298645 504.50793457 C193.88114865 504.51254776 191.93243629 504.51890349 189.98373115 504.52684355 C184.64800043 504.5435015 179.31255683 504.53530658 173.97682524 504.52289867 C168.21543171 504.51383645 162.45408703 504.5278235 156.69270325 504.53881836 C145.41542215 504.55659356 134.1382476 504.5527686 122.86096235 504.5411678 C113.69840525 504.53213253 104.535878 504.53090988 95.37331772 504.53526306 C94.06905658 504.53587599 92.76479544 504.53648893 91.42101123 504.53712043 C88.77146975 504.53839933 86.12192828 504.53969618 83.47238682 504.5410108 C59.34482836 504.552088 35.21732595 504.54060531 11.0897766 504.51964041 C-10.9382269 504.50064549 -32.96613792 504.50236873 -54.99414062 504.52148438 C-79.75024522 504.5428957 -104.50629659 504.55132765 -129.26240933 504.53903532 C-131.90034365 504.5377611 -134.53827798 504.53650362 -137.17621231 504.53526306 C-138.47415982 504.53464596 -139.77210733 504.53402886 -141.10938659 504.53339306 C-150.26636631 504.52993589 -159.42331328 504.53577612 -168.58028793 504.54518127 C-179.73127048 504.5563828 -190.88214036 504.55339958 -202.03310995 504.5320583 C-207.72486786 504.52152499 -213.4164377 504.51746509 -219.10819435 504.53065491 C-224.31400561 504.54253656 -229.51945367 504.53608624 -234.72523178 504.5147447 C-236.61259356 504.51026083 -238.49998576 504.51258466 -240.38732813 504.52224785 C-242.94522874 504.53434414 -245.50187171 504.52200651 -248.05970573 504.50336456 C-249.1687567 504.51741156 -249.1687567 504.51741156 -250.30021274 504.53174233 C-253.87333549 504.47939631 -255.88114956 504.07470102 -258.93376839 502.15603971 C-262.03639225 498.91856129 -262.12631849 496.26297013 -262.14044189 491.96536255 C-262.14615204 490.92510925 -262.15186218 489.88485596 -262.15774536 488.81307983 C-262.15886322 487.67222931 -262.15998108 486.53137878 -262.16113281 485.35595703 C-262.16609772 484.15410767 -262.17106262 482.9522583 -262.17617798 481.71398926 C-262.1882865 478.41639945 -262.1957446 475.11887305 -262.20018864 471.82126856 C-262.20312093 469.7606736 -262.20722601 467.7000842 -262.21169281 465.63949203 C-262.22536419 459.19114747 -262.23503285 452.74281561 -262.2388947 446.29445755 C-262.24337602 438.85287103 -262.2609287 431.41146813 -262.2898953 423.96993744 C-262.31151438 418.21612711 -262.32159908 412.46236843 -262.32293582 406.70851791 C-262.32398361 403.27268975 -262.32988573 399.8370343 -262.34775543 396.40124893 C-262.36730299 392.56838305 -262.36294623 388.73574659 -262.35644531 384.90283203 C-262.3656601 383.76602997 -262.37487488 382.62922791 -262.3843689 381.45797729 C-262.37601517 379.88913788 -262.37601517 379.88913788 -262.36749268 378.28860474 C-262.36969252 376.92973491 -262.36969252 376.92973491 -262.3719368 375.54341316 C-261.75901281 371.35205879 -260.07055377 368.88727864 -256.83520508 366.20581055 C-253.08068716 364.60901695 -249.64179035 364.62561067 -245.63671875 364.70703125 C-244.84473587 364.71127609 -244.05275299 364.71552094 -243.23677063 364.71989441 C-240.71999373 364.73661837 -238.20403276 364.77425775 -235.6875 364.8125 C-233.97592307 364.82755501 -232.26433351 364.84124199 -230.55273438 364.85351562 C-226.36817767 364.88650115 -222.18422693 364.93823902 -218 365 C-217.63956207 341.21702236 -217.39998887 317.43545988 -217.30309582 293.64988327 C-217.25530388 282.60469995 -217.16842749 271.56244148 -216.98852539 260.51855469 C-216.83176203 250.88896111 -216.74936297 241.26204331 -216.75510865 231.63112569 C-216.75558238 226.53311869 -216.71962078 221.44140969 -216.59447289 216.34481049 C-215.14398165 196.43817955 -215.14398165 196.43817955 -221.00235367 178.17961121 C-225.82277167 173.8721516 -231.08565025 171.72834931 -237.22432899 169.92736053 C-241.97674212 168.33956415 -246.1422934 165.72805011 -250.4375 163.1875 C-251.95627434 162.34628823 -253.47568294 161.50621914 -254.99609375 160.66796875 C-260.02807746 157.5946482 -264.11463352 153.65609945 -266 148 C-266.83387626 140.37900427 -266.82856727 134.07385721 -261.95703125 127.87890625 C-256.13892249 122.29305732 -249.87050998 120.44597583 -241.93359375 120.43359375 C-233.4817453 122.06544199 -225.83417175 127.18574489 -218.4375 131.375 C-217.34977295 131.98714355 -216.2620459 132.59928711 -215.14135742 133.22998047 C-206.64580123 138.02731236 -198.22351701 142.94505331 -189.81225586 147.88818359 C-183.27219289 151.71674835 -176.67001885 155.40319189 -170 159 C-159.14321277 164.85460406 -148.49225339 171.04098734 -137.87353516 177.31542969 C-135.83379887 178.51119693 -133.78567501 179.69270772 -131.73193359 180.86425781 C-130.66023926 181.4775293 -129.58854492 182.09080078 -128.484375 182.72265625 C-127.50952148 183.27574463 -126.53466797 183.82883301 -125.53027344 184.39868164 C-120.74695103 187.42587304 -117.39300811 191.42796754 -116 197 C-115.22604767 203.87031534 -115.91312368 209.31391121 -120 215 C-125.22693471 220.34572869 -130.56409139 222.61207483 -137.875 223.4375 C-150.58976807 222.08896399 -162.55733343 212.96723804 -173 207 C-173.33 259.14 -173.66 311.28 -174 365 C-170.04 365.33 -166.08 365.66 -162 366 C-148.02452597 370.14656922 -137.3137813 377.65228135 -130.125 390.5 C-124.12176123 401.78050447 -125 410.70394137 -125 424 C-109.49 424 -93.98 424 -78 424 C-78 421.03 -78 418.06 -78 415 C-75.03222898 402.57640536 -67.52162849 393.87589366 -57 387 C-51.66110019 384.09622661 -47.03769627 382.81490649 -41 382 C-41.00888245 381.01773941 -41.01776489 380.03547882 -41.0269165 379.02345276 C-41.10820673 369.74043466 -41.16806318 360.45748933 -41.20724869 351.17419529 C-41.22807208 346.40219279 -41.25629322 341.63047897 -41.30175781 336.85864258 C-41.34540358 332.24855166 -41.36917654 327.63873741 -41.37950897 323.02845573 C-41.38686686 321.27467434 -41.40123483 319.5209071 -41.42292023 317.76724434 C-41.5727448 305.14246594 -40.78133823 296.43086706 -31.9052124 286.87182617 C-29.44894433 284.45860082 -26.87554047 282.25144353 -24.20158386 280.08387756 C-4.96170683 265.02821188 -4.96170683 265.02821188 5.09320068 243.74557495 C6.19843422 233.15714349 5.44327595 222.52065767 4 212 C2.89076172 212.01571045 1.78152344 212.0314209 0.63867188 212.04760742 C-3.50611002 212.10221427 -7.65086058 212.13646118 -11.79589844 212.16479492 C-13.58436443 212.17981184 -15.37279403 212.20023158 -17.16113281 212.22631836 C-19.74293031 212.26301615 -22.32423779 212.27979745 -24.90625 212.29296875 C-26.09112 212.31619453 -26.09112 212.31619453 -27.29992676 212.33988953 C-33.45219092 212.34172337 -39.23842775 211.40711758 -44.0390625 207.22265625 C-44.56242188 206.50980469 -45.08578125 205.79695312 -45.625 205.0625 C-46.28242188 204.17820313 -46.93984375 203.29390625 -47.6171875 202.3828125 C-48.4139786 201.2569878 -49.20794027 200.1291584 -50 199 C-50.50305664 198.29069336 -51.00611328 197.58138672 -51.52441406 196.85058594 C-54.49972677 192.65106507 -57.44905515 188.4344766 -60.37890625 184.203125 C-62.71169022 180.83751015 -65.07049899 177.49396844 -67.46484375 174.171875 C-68.00850586 173.41463135 -68.55216797 172.6573877 -69.11230469 171.87719727 C-70.1299699 170.46252906 -71.15243372 169.05129492 -72.18066406 167.64428711 C-76.78693556 161.21503605 -80.09917763 155.1967246 -79 147 C-77.62205983 139.94818854 -73.72897116 136.09536355 -68 132 C-63.63027646 129.42298356 -58.94979034 129.45475631 -54 130 C-43.8805873 133.25879392 -39.70167555 139.57407155 -34.20507812 148.15820312 C-31.43543428 152.39122443 -28.49950746 156.51573725 -25.59301758 160.65551758 C-25.14079834 161.30673584 -24.6885791 161.9579541 -24.22265625 162.62890625 C-23.81797119 163.20713135 -23.41328613 163.78535645 -22.99633789 164.38110352 C-22 166 -22 166 -21 169 C-12.68973125 170.03168707 -4.02652548 170.78705897 4 168 C10.02084009 163.11269789 13.1848612 155.79853266 16.5078125 148.94824219 C18.78781805 144.44344064 21.56360813 140.31074919 24.375 136.125 C25.28102003 134.73331361 26.18492744 133.34024769 27.0859375 131.9453125 C27.71757812 130.97335938 28.34921875 130.00140625 29 129 C27.74896484 128.18208984 27.74896484 128.18208984 26.47265625 127.34765625 C11.57550999 117.44435139 0.09618521 105.7998911 -3.96801758 87.80249023 C-7.11306822 72.1225167 -3.42342617 57.41009446 5 44 C6.00136634 42.3341539 7.00174301 40.66771123 8 39 C7.45730469 38.48050781 6.91460937 37.96101563 6.35546875 37.42578125 C-0.44179215 30.79998278 -4.07078198 26.01827668 -4.3125 16.375 C-4.2898006 10.21589615 -2.71342268 5.47529934 0 0 Z M25.57299805 317.70678711 C23.84044867 318.67193076 22.10287438 319.62803625 20.36523438 320.58398438 C10.87824241 325.32719489 10.87824241 325.32719489 4 333 C3.93610146 335.86933244 3.93427578 338.7123488 3.97827148 341.58056641 C3.98806314 342.48281637 3.99785479 343.38506634 4.00794315 344.31465721 C4.04089505 347.24370393 4.08087209 350.17260751 4.12109375 353.1015625 C4.14243013 354.90648873 4.1633075 356.71142046 4.18371582 358.51635742 C4.26273928 365.21930628 4.35066485 371.92214779 4.4375 378.625 C4.623125 393.59875 4.80875 408.5725 5 424 C52.85 424 100.7 424 150 424 C147.525 421.03 147.525 421.03 145 418 C143.671875 415.62109375 143.671875 415.62109375 142.75 413.4375 C142.43546875 412.71433594 142.1209375 411.99117188 141.796875 411.24609375 C140.31226151 407.06152142 139.87647173 403.12333429 139.90234375 398.69921875 C139.90556641 397.72275391 139.90878906 396.74628906 139.91210938 395.74023438 C139.92048828 394.73283203 139.92886719 393.72542969 139.9375 392.6875 C139.94201172 391.66076172 139.94652344 390.63402344 139.95117188 389.57617188 C139.96291817 387.05071808 139.98021503 384.52539973 140 382 C131.95132397 378.50192514 123.82227629 375.46663941 115.4936142 372.70449638 C113.48944967 372.03954077 111.48735755 371.36863772 109.48565674 370.69630432 C103.80429626 368.78931337 98.11915107 366.89370261 92.43359375 364.99926758 C88.92974059 363.83133365 85.4278655 362.65761469 81.9270401 361.4806385 C79.97001152 360.82472703 78.0108088 360.17563672 76.05145264 359.52671814 C57.75335454 353.37642611 57.75335454 353.37642611 53 344 C52.56042969 343.15985352 52.12085938 342.31970703 51.66796875 341.45410156 C50.24751769 338.69222454 48.86894305 335.91273557 47.5 333.125 C47.03980469 332.19558594 46.57960938 331.26617187 46.10546875 330.30859375 C45.18990043 328.45940365 44.27580771 326.60948213 43.36328125 324.75878906 C41.25779808 320.49805127 39.1295668 316.24873984 37 312 C33.36863552 312 28.70036734 315.96090225 25.57299805 317.70678711 Z " fill="#FC8087" transform="translate(266,4)"/>
<path d="M0 0 C2.97597073 1.6285166 5.93218705 3.28836712 8.8840332 4.96020508 C9.97176025 5.57234863 11.0594873 6.18449219 12.18017578 6.81518555 C20.67573197 11.61251744 29.0980162 16.53025839 37.50927734 21.47338867 C44.04934032 25.30195343 50.65151436 28.98839697 57.3215332 32.58520508 C68.17832043 38.43980914 78.82927981 44.62619242 89.44799805 50.90063477 C91.48773434 52.096402 93.53585819 53.2779128 95.58959961 54.44946289 C96.66129395 55.06273437 97.73298828 55.67600586 98.8371582 56.30786133 C99.81201172 56.86094971 100.78686523 57.41403809 101.79125977 57.98388672 C106.57458217 61.01107812 109.92852509 65.01317262 111.3215332 70.58520508 C112.09548554 77.45552042 111.40840952 82.89911629 107.3215332 88.58520508 C102.09459849 93.93093376 96.75744181 96.19727991 89.4465332 97.02270508 C76.73176513 95.67416907 64.76419977 86.55244312 54.3215332 80.58520508 C53.9915332 132.72520508 53.6615332 184.86520508 53.3215332 238.58520508 C57.2815332 238.91520508 61.2415332 239.24520508 65.3215332 239.58520508 C79.29700723 243.7317743 90.0077519 251.23748642 97.1965332 264.08520508 C101.90795534 272.93829598 102.61140934 280.68144404 102.5168457 290.52270508 C102.51401581 291.64338379 102.51118591 292.7640625 102.50827026 293.91870117 C102.49713571 297.47431419 102.47204334 301.02966905 102.4465332 304.58520508 C102.43649472 307.00577434 102.42737039 309.42634758 102.41918945 311.84692383 C102.39721841 317.75977132 102.36380811 323.67246975 102.3215332 329.58520508 C103.02598875 329.58330648 103.73044429 329.58140787 104.45624697 329.57945174 C146.19213704 329.46760295 187.92800974 329.38179336 229.6640195 329.32987843 C234.67339281 329.32362477 239.68276582 329.31715317 244.69213867 329.31054688 C245.68943014 329.30923532 246.68672161 329.30792377 247.71423404 329.30657247 C263.87007743 329.28480576 280.02583202 329.24537726 296.1816227 329.1994411 C312.754408 329.15271169 329.32714673 329.12491712 345.89999521 329.1147626 C356.1294101 329.10789615 366.358574 329.08619591 376.58791165 329.04562274 C383.5990475 329.01922778 390.61005326 329.01119671 397.62123521 329.01769819 C401.66863333 329.02090616 405.71559236 329.01592989 409.76291275 328.9891777 C413.4680071 328.9648661 417.17236662 328.96360312 420.87749462 328.9807106 C422.85344935 328.9838274 424.8293953 328.96224327 426.80522501 328.93979853 C436.39465971 329.02101779 436.39465971 329.02101779 440.12006187 331.93137836 C442.3215332 334.58520508 442.3215332 334.58520508 442.9465332 337.64770508 C442.19693143 341.17083342 441.11028844 342.37060533 438.3215332 344.58520508 C435.70474502 345.89359917 433.79117856 345.70935101 430.85923576 345.70825291 C429.10808143 345.71123948 429.10808143 345.71123948 427.32155025 345.71428639 C426.0277992 345.71137355 424.73404815 345.7084607 423.40109253 345.70545959 C422.0216829 345.70589531 420.64227334 345.70677022 419.26286423 345.70804876 C415.45924678 345.71029365 411.65565728 345.70627251 407.85204339 345.7012707 C403.75524408 345.6969663 399.65844644 345.69841262 395.56164551 345.69917297 C388.4593048 345.69969822 381.35697326 345.69655139 374.25463486 345.69093513 C363.98575031 345.68282017 353.71687021 345.68020492 343.4479828 345.67894714 C326.78880568 345.67675662 310.12963345 345.67009652 293.47045898 345.66064453 C277.28426132 345.65147043 261.09806498 345.64438958 244.91186523 345.64013672 C243.91473416 345.639874 242.91760308 345.63961127 241.89025591 345.63934059 C236.88811739 345.63803558 231.88597886 345.63677187 226.88384032 345.63552868 C185.36306772 345.62515606 143.8423011 345.60726319 102.3215332 345.58520508 C102.3215332 356.14520508 102.3215332 366.70520508 102.3215332 377.58520508 C85.32759731 377.67550414 68.33386617 377.74918617 51.33975697 377.79245377 C43.44907352 377.81307776 35.55854972 377.84119508 27.66796875 377.88696289 C20.79040902 377.92683584 13.91296491 377.95263908 7.0352928 377.96155906 C3.39366606 377.9667731 -0.24762991 377.97902408 -3.88915062 378.00812531 C-7.95473266 378.04035178 -12.01973987 378.04116421 -16.08544922 378.03930664 C-17.29241959 378.05368774 -18.49938995 378.06806885 -19.74293518 378.08288574 C-27.87734817 378.04255823 -27.87734817 378.04255823 -31.9030304 375.74432373 C-34.63987273 372.41603366 -34.80523917 369.71006036 -34.81890869 365.55056763 C-34.82461884 364.51031433 -34.83032898 363.47006104 -34.83621216 362.39828491 C-34.83733002 361.25743439 -34.83844788 360.11658386 -34.83959961 358.94116211 C-34.84456451 357.73931274 -34.84952942 356.53746338 -34.85464478 355.29919434 C-34.8667533 352.00160453 -34.8742114 348.70407813 -34.87865543 345.40647364 C-34.88158773 343.34587868 -34.88569281 341.28528927 -34.89015961 339.22469711 C-34.90383099 332.77635255 -34.91349964 326.32802068 -34.9173615 319.87966263 C-34.92184282 312.43807611 -34.9393955 304.99667321 -34.96836209 297.55514252 C-34.98998117 291.80133219 -35.00006588 286.04757351 -35.00140262 280.29372299 C-35.00245041 276.85789483 -35.00835252 273.42223938 -35.02622223 269.98645401 C-35.04576978 266.15358813 -35.04141303 262.32095167 -35.03491211 258.48803711 C-35.04412689 257.35123505 -35.05334167 256.21443298 -35.06283569 255.04318237 C-35.05448196 253.47434296 -35.05448196 253.47434296 -35.04595947 251.87380981 C-35.04815931 250.51493999 -35.04815931 250.51493999 -35.05040359 249.12861824 C-34.43747961 244.93726386 -32.74902057 242.47248371 -29.51367188 239.79101562 C-25.75915396 238.19422203 -22.32025715 238.21081575 -18.31518555 238.29223633 C-17.52320267 238.29648117 -16.73121979 238.30072601 -15.91523743 238.30509949 C-13.39846053 238.32182344 -10.88249955 238.35946282 -8.3659668 238.39770508 C-6.65438986 238.41276009 -4.94280031 238.42644707 -3.23120117 238.4387207 C0.95335554 238.47170623 5.13730627 238.5234441 9.3215332 238.58520508 C9.68197113 214.80222743 9.92154433 191.02066496 10.01843739 167.23508835 C10.06622933 156.18990503 10.15310571 145.14764656 10.33300781 134.10375977 C10.48977118 124.47416619 10.57217023 114.84724839 10.56642455 105.21633077 C10.56595083 100.11832377 10.60191242 95.02661477 10.72706032 89.93001556 C12.17755155 70.02338463 12.17755155 70.02338463 6.31917953 51.76481628 C1.49876153 47.45735668 -3.76411705 45.31355438 -9.90279579 43.51256561 C-14.65520892 41.92476923 -18.8207602 39.31325518 -23.1159668 36.77270508 C-24.63474114 35.93149331 -26.15414974 35.09142422 -27.67456055 34.25317383 C-32.70654425 31.17985328 -36.79310031 27.24130453 -38.6784668 21.58520508 C-39.51234306 13.96420935 -39.50703407 7.65906228 -34.63549805 1.46411133 C-23.74392017 -8.99267302 -12.07292061 -6.3770463 0 0 Z " fill="#F7F1EF" transform="translate(38.678466796875,130.414794921875)"/>
<path d="M0 0 C42.88897464 -0.06783001 85.77793641 -0.12153474 128.66695406 -0.15319599 C133.73125723 -0.15694807 138.79556028 -0.16083104 143.85986328 -0.16479492 C144.86806797 -0.16558185 145.87627266 -0.16636878 146.915029 -0.16717956 C163.2362695 -0.18023081 179.55747827 -0.20388311 195.87869994 -0.23145839 C212.62779005 -0.25952039 229.37686355 -0.27617795 246.1259762 -0.28226548 C256.45972134 -0.28638027 266.79337681 -0.29937307 277.12709434 -0.3237494 C284.21486473 -0.33961639 291.3025888 -0.34439817 298.39037566 -0.34050413 C302.47866395 -0.33858409 306.56679561 -0.34151199 310.655056 -0.35761642 C314.40215185 -0.3722688 318.14898648 -0.37291798 321.89609464 -0.36269668 C323.88497043 -0.36083893 325.87384337 -0.37372971 327.86267412 -0.38724393 C338.75112057 -0.33292306 347.10327638 1.66233396 356 8 C356.86625 8.5775 357.7325 9.155 358.625 9.75 C362.14380265 13.08360251 364.57490602 16.82086544 367 21 C367.41894531 21.71800781 367.83789062 22.43601562 368.26953125 23.17578125 C372.85051824 32.54818925 372.6298044 45.2506553 369.4375 55.0625 C364.87367113 65.48271068 356.73838026 73.97487725 346.09253216 78.16915512 C339.31648577 80.52335258 332.88324547 80.54522616 325.76948547 80.48101807 C324.3575566 80.48276568 322.94562901 80.48627406 321.53370827 80.49137473 C317.6818569 80.50026149 313.83045574 80.48439881 309.97866166 80.46426249 C305.81453614 80.44691023 301.65043387 80.45283966 297.48628235 80.45587158 C290.28091277 80.45796405 283.07568861 80.44546583 275.87035561 80.42292023 C265.45281284 80.39034487 255.03534004 80.37998756 244.61775186 80.37496826 C227.71395947 80.36622428 210.81024451 80.33963307 193.90649414 80.30175781 C177.49080796 80.26501449 161.07514285 80.23671409 144.65942383 80.21972656 C143.14039102 80.21815022 143.14039102 80.21815022 141.59067068 80.21654204 C136.51006357 80.2113217 131.4294563 80.20626691 126.34884894 80.20129442 C84.23250961 80.15986032 42.11626489 80.08833174 0 80 C0 69.44 0 58.88 0 48 C4.175495 47.98969254 8.35098999 47.97938507 12.65301514 47.96876526 C50.91689641 47.87385112 89.18076243 47.77404499 127.44461696 47.66888306 C132.45656745 47.65511299 137.46851806 47.64138597 142.48046875 47.62768555 C143.47828484 47.62495724 144.47610093 47.62222894 145.50415388 47.61941796 C161.67422787 47.57530724 177.84430886 47.5346859 194.01439509 47.49534739 C210.59848711 47.45492426 227.18256613 47.41076691 243.76663899 47.36312145 C254.00515782 47.33382489 264.24367565 47.30746337 274.48221138 47.28482103 C281.49705369 47.26902919 288.5118801 47.24961992 295.52670476 47.22733159 C299.57773253 47.21456808 303.62874805 47.20343249 307.6797905 47.19658089 C311.38580188 47.19027774 315.09177101 47.17945003 318.79775921 47.1649667 C320.7791161 47.15841652 322.76048728 47.15675916 324.74185443 47.15525442 C326.4989819 47.14704276 326.4989819 47.14704276 328.2916069 47.1386652 C329.30470074 47.13600716 330.31779459 47.13334911 331.36158824 47.13061053 C333.73141472 47.0132959 335.73484447 46.67729394 338 46 C338.3042656 44.59013562 338.56720908 43.17131189 338.8125 41.75 C338.96332031 40.96109375 339.11414063 40.1721875 339.26953125 39.359375 C339.22516397 36.77768073 339.22516397 36.77768073 336.84761935 34.88427711 C333.59764126 32.73375818 332.02084488 32.49796902 328.16855907 32.49219131 C326.99514971 32.48074373 325.82174034 32.46929614 324.61277312 32.45750165 C323.3277606 32.46526207 322.04274807 32.47302248 320.71879578 32.48101807 C319.3367889 32.47514236 317.95478854 32.46751507 316.57279998 32.458287 C312.77585654 32.43800445 308.97928624 32.44258632 305.18231332 32.45119452 C301.08756875 32.45613357 296.99291859 32.4380617 292.89820862 32.42277527 C285.80408769 32.39944517 278.71006904 32.39071552 271.61591148 32.39188385 C261.35895784 32.39355199 251.10214067 32.37322961 240.8452234 32.34752855 C224.20435806 32.30642874 207.56351724 32.28312986 190.92260742 32.27099609 C174.75689334 32.25917076 158.59122543 32.23898012 142.42553711 32.20751953 C141.4291942 32.20558343 140.4328513 32.20364733 139.40631618 32.20165256 C134.40798928 32.19188809 129.40966272 32.18195897 124.4113363 32.17194796 C82.94091066 32.08910107 41.47049037 32.0362272 0 32 C0 21.44 0 10.88 0 0 Z " fill="#609DCE" transform="translate(141,428)"/>
<path d="M0 0 C1.3648954 3.89426604 2.4260854 7.68851316 3.18920898 11.74243164 C3.39960312 12.84700211 3.60999725 13.95157257 3.82676697 15.08961487 C4.04764481 16.26789352 4.26852264 17.44617218 4.49609375 18.66015625 C4.9768857 21.1699847 5.45801575 23.6797484 5.93945312 26.18945312 C6.69163804 30.13442554 7.44132546 34.07980853 8.18383789 38.02661133 C8.90427479 41.84366712 9.63683068 45.65823957 10.37109375 49.47265625 C10.58994736 50.65295914 10.80880096 51.83326202 11.0342865 53.04933167 C11.24783279 54.15074997 11.46137909 55.25216827 11.68139648 56.38696289 C11.86411606 57.35259659 12.04683563 58.31823029 12.23509216 59.31312561 C13.08602489 62.30217767 14.18542436 64.4797532 16 67 C18.42123789 68.14763227 20.5403703 68.96641798 23.078125 69.7265625 C23.78921921 69.95608109 24.50031342 70.18559967 25.23295593 70.42207336 C26.76695667 70.9151565 28.30359957 71.4000794 29.84249878 71.87765503 C33.1004061 72.88898604 36.34521022 73.93952463 39.59117126 74.9884491 C41.25920906 75.52720647 42.92788763 76.06398373 44.59718323 76.59883118 C52.76704882 79.22229657 60.85765394 82.05054206 68.9375 84.9375 C70.1656543 85.37336426 71.39380859 85.80922852 72.65917969 86.25830078 C74.98012112 87.08666206 77.2981596 87.9232156 79.61279297 88.76904297 C81.95249729 89.61932329 84.3012435 90.44498392 86.65673828 91.25048828 C87.82317871 91.66411621 88.98961914 92.07774414 90.19140625 92.50390625 C91.23627197 92.86427979 92.2811377 93.22465332 93.35766602 93.59594727 C96.73790052 95.392097 97.75693472 96.35297543 99 100 C98.62554992 108.2221527 94.90774778 116.22196329 92.02734375 123.8125 C91.53871721 125.115973 91.0507374 126.41968859 90.56336975 127.72363281 C89.28991806 131.12508681 88.00720492 134.52297427 86.72259521 137.92022705 C85.67183205 140.70377326 84.62767482 143.48977492 83.58383846 146.27592468 C81.42980515 152.02505025 79.27070745 157.77227594 77.10131836 163.515625 C76.71874374 164.52915039 76.33616913 165.54267578 75.94200134 166.58691406 C75 169 75 169 74 171 C71.2697611 171.1083667 68.54385457 171.18746694 65.8125 171.25 C65.04357422 171.28351563 64.27464844 171.31703125 63.48242188 171.3515625 C59.63537731 171.41760618 57.51068898 171.29726672 54.12109375 169.32421875 C51.84423556 166.82931889 50.57430642 164.66258093 49.25 161.5625 C48.84265625 160.63566406 48.4353125 159.70882812 48.015625 158.75390625 C46.39803496 154.36774865 45.8750809 150.36116538 45.90234375 145.69921875 C45.90556641 144.72275391 45.90878906 143.74628906 45.91210938 142.74023438 C45.92048828 141.73283203 45.92886719 140.72542969 45.9375 139.6875 C45.94201172 138.66076172 45.94652344 137.63402344 45.95117188 136.57617188 C45.96291816 134.05072118 45.97934435 131.52539095 46 129 C45.18726624 128.72295731 44.37453247 128.44591461 43.53717041 128.16047668 C35.82826481 125.53187805 28.12071081 122.89936036 20.41460037 120.26257801 C16.45404018 118.90755225 12.49299737 117.5539769 8.53076172 116.20385742 C4.69753212 114.89763407 0.86568817 113.5874167 -2.96527863 112.27457237 C-4.41740826 111.77769057 -5.87000825 111.28218088 -7.32311249 110.78815651 C-35.35934796 101.25264238 -35.35934796 101.25264238 -39.78930664 94.1184082 C-40.32418701 93.02359131 -40.85906738 91.92877441 -41.41015625 90.80078125 C-41.85143105 89.90905464 -41.85143105 89.90905464 -42.30162048 88.99931335 C-43.23336519 87.10907803 -44.14790279 85.21108099 -45.0625 83.3125 C-45.67926381 82.057414 -46.29709393 80.80285141 -46.91601562 79.54882812 C-50.08833829 73.09430916 -53.13415477 66.59644675 -56 60 C-58.45911574 61.3324724 -60.91472353 62.67093196 -63.3671875 64.015625 C-66.11393572 65.52124995 -68.87217955 67.00437839 -71.6328125 68.484375 C-73.25539569 69.36423792 -74.87779132 70.24444678 -76.5 71.125 C-77.28938965 71.54442871 -78.0787793 71.96385742 -78.89208984 72.39599609 C-79.6392627 72.80414551 -80.38643555 73.21229492 -81.15625 73.6328125 C-81.82462891 73.99262207 -82.49300781 74.35243164 -83.18164062 74.72314453 C-85.50766012 76.35647992 -86.57491499 77.49870554 -88 80 C-88.27566798 83.00738456 -88.3793197 85.80271457 -88.34057617 88.80761719 C-88.34101425 89.69577621 -88.34145233 90.58393524 -88.34190369 91.49900818 C-88.33981527 94.43185481 -88.3164816 97.36412834 -88.29296875 100.296875 C-88.28737299 102.33139738 -88.2831028 104.3659238 -88.28010559 106.40045166 C-88.2686553 111.75334854 -88.23918638 117.10600093 -88.20599365 122.45880127 C-88.16989906 128.88232877 -88.15613251 135.30593806 -88.13863373 141.72953796 C-88.1095493 151.48652864 -88.05206313 161.24298295 -88 171 C-115.39 171 -142.78 171 -171 171 C-171 159.41807247 -168.57329429 151.19254921 -160.75 142.5 C-152.57697854 135.06998049 -145.04798043 130.4911434 -134 129 C-134.00888245 128.01773941 -134.01776489 127.03547882 -134.0269165 126.02345276 C-134.10820673 116.74043466 -134.16806318 107.45748933 -134.20724869 98.17419529 C-134.22807208 93.40219279 -134.25629322 88.63047897 -134.30175781 83.85864258 C-134.34540358 79.24855166 -134.36917654 74.63873741 -134.37950897 70.02845573 C-134.38686686 68.27467434 -134.40123483 66.5209071 -134.42292023 64.76724434 C-134.56982317 52.38865287 -133.87775286 43.77833357 -125.08447266 34.53564453 C-123.37360146 32.4544653 -122.11966077 30.58290733 -120.79443359 28.26513672 C-95.57737135 -15.46381616 -43.2875757 -3.52330395 0 0 Z " fill="#D6DCE9" transform="translate(359,257)"/>
<path d="M0 0 C2.97597073 1.6285166 5.93218705 3.28836712 8.8840332 4.96020508 C9.97176025 5.57234863 11.0594873 6.18449219 12.18017578 6.81518555 C20.67573197 11.61251744 29.0980162 16.53025839 37.50927734 21.47338867 C44.04934032 25.30195343 50.65151436 28.98839697 57.3215332 32.58520508 C68.17832043 38.43980914 78.82927981 44.62619242 89.44799805 50.90063477 C91.48773434 52.096402 93.53585819 53.2779128 95.58959961 54.44946289 C96.66129395 55.06273437 97.73298828 55.67600586 98.8371582 56.30786133 C99.81201172 56.86094971 100.78686523 57.41403809 101.79125977 57.98388672 C106.57458217 61.01107812 109.92852509 65.01317262 111.3215332 70.58520508 C112.09548554 77.45552042 111.40840952 82.89911629 107.3215332 88.58520508 C102.09459849 93.93093376 96.75744181 96.19727991 89.4465332 97.02270508 C76.73176513 95.67416907 64.76419977 86.55244312 54.3215332 80.58520508 C53.9915332 133.05520508 53.6615332 185.52520508 53.3215332 239.58520508 C39.1315332 239.58520508 24.9415332 239.58520508 10.3215332 239.58520508 C9.3215332 238.58520508 9.3215332 238.58520508 9.24152756 235.6220808 C9.25745534 234.26810036 9.27899103 232.91417995 9.30462646 231.56034851 C9.31450537 230.81658724 9.32438427 230.07282597 9.33456254 229.30652648 C9.35676068 227.66779488 9.38121488 226.02909275 9.40757561 224.39042282 C9.48042289 219.83575797 9.53609183 215.28086776 9.59442139 210.72599792 C9.60733798 209.75248489 9.62025456 208.77897185 9.63356256 207.77595842 C9.79473933 195.32689995 9.85743002 182.87715002 9.91986036 170.42726457 C9.98077248 158.29973154 10.07452237 146.1748897 10.27807617 134.04882812 C10.43947431 124.42403839 10.52632842 114.80185093 10.52575421 105.17566043 C10.52813648 100.08094747 10.5673478 94.99265712 10.69649506 89.8994503 C12.16393122 70.01088861 12.16393122 70.01088861 6.32072449 51.76636124 C1.50021608 47.45896333 -3.76382869 45.31509206 -9.90222931 43.5131321 C-14.654664 41.92468278 -18.82051826 39.31334039 -23.1159668 36.77270508 C-24.63474215 35.93149512 -26.15415092 35.09142635 -27.67456055 34.25317383 C-32.70654425 31.17985328 -36.79310031 27.24130453 -38.6784668 21.58520508 C-39.51234306 13.96420935 -39.50703407 7.65906228 -34.63549805 1.46411133 C-23.74392017 -8.99267302 -12.07292061 -6.3770463 0 0 Z " fill="#1D75BB" transform="translate(38.678466796875,130.414794921875)"/>
<path d="M0 0 C4.55063845 0.61457788 8.52245774 1.81489142 12.8125 3.4375 C23.91785223 7.48110674 34.31179387 8.96173428 46.1171875 9.17578125 C47.38433594 9.19962891 48.65148437 9.22347656 49.95703125 9.24804688 C52.56103308 9.29088439 55.16525078 9.322206 57.76953125 9.34179688 C72.971667 9.67362014 85.29578179 14.37697178 96.375 24.9375 C108.92619903 38.33398386 110.65253475 54.82421938 110.140625 72.42431641 C109.04510886 92.48975955 101.41870202 108.87256818 87.16796875 122.7890625 C81.12995593 127.91940019 73.47488584 129.83848347 66 132 C65.35804688 132.20109375 64.71609375 132.4021875 64.0546875 132.609375 C49.74681653 135.32950256 35.21474861 132.31241735 22.70703125 125.1015625 C19.98150895 123.1993359 17.48739471 121.20216226 15 119 C13.93072266 118.09314453 13.93072266 118.09314453 12.83984375 117.16796875 C1.15988324 106.47821683 -4.74780185 92.15512405 -5.5 76.5 C-4.96779066 64.72043319 -1.22892433 53.91644753 5 44 C6.00136634 42.3341539 7.00174301 40.66771123 8 39 C7.18595703 38.22076172 7.18595703 38.22076172 6.35546875 37.42578125 C-0.44179215 30.79998278 -4.07078198 26.01827668 -4.3125 16.375 C-4.2898006 10.21589615 -2.71342268 5.47529934 0 0 Z " fill="#FDD0A3" transform="translate(266,4)"/>
<path d="M0 0 C10.28249452 10.71435929 13.20775513 23.07131217 13.0703125 37.375 C13.0674826 38.49567871 13.06465271 39.61635742 13.06173706 40.77099609 C13.05060251 44.32660911 13.02551014 47.88196398 13 51.4375 C12.98996152 53.85806926 12.98083719 56.2786425 12.97265625 58.69921875 C12.95068521 64.61206624 12.91727491 70.52476467 12.875 76.4375 C13.57945554 76.4356014 14.28391109 76.4337028 15.00971377 76.43174666 C56.74560384 76.31989787 98.48147654 76.23408828 140.2174863 76.18217335 C145.22685961 76.17591969 150.23623261 76.16944809 155.24560547 76.1628418 C156.24289694 76.16153024 157.24018841 76.16021869 158.26770084 76.1588674 C174.42354423 76.13710068 190.57929882 76.09767218 206.7350895 76.05173602 C223.30787479 76.00500661 239.88061353 75.97721205 256.453462 75.96705753 C266.6828769 75.96019107 276.9120408 75.93849083 287.14137845 75.89791767 C294.15251429 75.8715227 301.16352006 75.86349163 308.174702 75.86999311 C312.22210013 75.87320109 316.26905916 75.86822481 320.31637955 75.84147263 C324.02147389 75.81716103 327.72583342 75.81589805 331.43096142 75.83300553 C333.40691615 75.83612232 335.3828621 75.8145382 337.35869181 75.79209346 C346.94812651 75.87331271 346.94812651 75.87331271 350.67352867 78.78367329 C352.875 81.4375 352.875 81.4375 353.5 84.5 C352.75039823 88.02312834 351.66375524 89.22290025 348.875 91.4375 C346.25821182 92.74589409 344.34464536 92.56164593 341.41270256 92.56054783 C339.66154823 92.5635344 339.66154823 92.5635344 337.87501705 92.56658131 C336.581266 92.56366847 335.28751495 92.56075563 333.95455933 92.55775452 C332.57514969 92.55819023 331.19574014 92.55906515 329.81633103 92.56034368 C326.01271358 92.56258857 322.20912408 92.55856744 318.40551019 92.55356562 C314.30871088 92.54926122 310.21191324 92.55070754 306.1151123 92.5514679 C299.0127716 92.55199314 291.91044006 92.54884631 284.80810165 92.54323006 C274.53921711 92.53511509 264.27033701 92.53249984 254.0014496 92.53124207 C237.34227248 92.52905154 220.68310025 92.52239144 204.02392578 92.51293945 C187.83772811 92.50376535 171.65153177 92.49668451 155.46533203 92.49243164 C154.46820096 92.49216892 153.47106988 92.49190619 152.44372271 92.49163551 C147.44158419 92.4903305 142.43944566 92.48906679 137.43730712 92.48782361 C95.91653452 92.47745098 54.3957679 92.45955811 12.875 92.4375 C12.875 102.9975 12.875 113.5575 12.875 124.4375 C2.315 124.4375 -8.245 124.4375 -19.125 124.4375 C-19.1343457 121.53686768 -19.14369141 118.63623535 -19.15332031 115.64770508 C-19.18720772 106.02441556 -19.24282175 96.40133783 -19.30890274 86.77821827 C-19.34827824 80.9482447 -19.38051535 75.11841994 -19.39599609 69.28833008 C-19.4112281 63.65360284 -19.44578938 58.01928498 -19.49330902 52.38474083 C-19.50805553 50.24359397 -19.51603711 48.10238865 -19.51688385 45.96119118 C-19.53119391 27.90627374 -21.13971826 14.70294606 -33.5625 0.6875 C-41.66196907 -6.42422894 -49.39617504 -10.61004717 -60.125 -12.5625 C-60.125 -12.8925 -60.125 -13.2225 -60.125 -13.5625 C-17.38371743 -15.84887865 -17.38371743 -15.84887865 0 0 Z " fill="#D3DAE9" transform="translate(128.125,383.5625)"/>
<path d="M0 0 C-3.12769632 16.50358907 -16.78585644 30.5913412 -29.9296875 40.125 C-38.64910932 45.9237353 -47.85387742 50.91925565 -57.02978516 55.95214844 C-58.05765137 56.51836914 -59.08551758 57.08458984 -60.14453125 57.66796875 C-61.05565674 58.16578857 -61.96678223 58.6636084 -62.90551758 59.17651367 C-63.92669678 59.77826416 -64.94787598 60.38001465 -66 61 C-66.76870926 61.34270935 -67.53741852 61.6854187 -68.329422 62.03851318 C-71.07809439 63.45497023 -72.9392091 64.68214593 -75 67 C-76.31467899 71.75743758 -76.19037453 76.47060401 -76.09765625 81.3671875 C-76.10331411 82.77110878 -76.11293134 84.17501918 -76.12632751 85.57888794 C-76.15087735 89.25890319 -76.12191992 92.93659482 -76.08154297 96.61639404 C-76.04983489 100.37715473 -76.06909991 104.13762366 -76.08398438 107.8984375 C-76.10567822 115.26644461 -76.06609487 122.6321616 -76 130 C-68.41 130 -60.82 130 -53 130 C-53 143.53 -53 157.06 -53 171 C-80.39 171 -107.78 171 -136 171 C-136 159.41807247 -133.57329429 151.19254921 -125.75 142.5 C-117.57697854 135.06998049 -110.04798043 130.4911434 -99 129 C-99.00888245 128.01773941 -99.01776489 127.03547882 -99.0269165 126.02345276 C-99.10820673 116.74043466 -99.16806318 107.45748933 -99.20724869 98.17419529 C-99.22807208 93.40219279 -99.25629322 88.63047897 -99.30175781 83.85864258 C-99.34540358 79.24855166 -99.36917654 74.63873741 -99.37950897 70.02845573 C-99.38686686 68.27467434 -99.40123483 66.5209071 -99.42292023 64.76724434 C-99.57450516 51.9941312 -98.73315738 43.58514365 -89.78491211 33.96316528 C-88.06032123 32.06634531 -86.55144404 30.12178579 -85.04882812 28.04663086 C-61.4709282 -4.21066991 -38.05475603 -5.30302565 0 0 Z " fill="#F7F1EF" transform="translate(324,257)"/>
<path d="M0 0 C2.97597073 1.6285166 5.93218705 3.28836712 8.8840332 4.96020508 C9.97176025 5.57234863 11.0594873 6.18449219 12.18017578 6.81518555 C20.67573197 11.61251744 29.0980162 16.53025839 37.50927734 21.47338867 C44.04934032 25.30195343 50.65151436 28.98839697 57.3215332 32.58520508 C68.17832043 38.43980914 78.82927981 44.62619242 89.44799805 50.90063477 C91.48773434 52.096402 93.53585819 53.2779128 95.58959961 54.44946289 C96.66129395 55.06273437 97.73298828 55.67600586 98.8371582 56.30786133 C99.81201172 56.86094971 100.78686523 57.41403809 101.79125977 57.98388672 C106.57458217 61.01107812 109.92852509 65.01317262 111.3215332 70.58520508 C112.09548554 77.45552042 111.40840952 82.89911629 107.3215332 88.58520508 C102.09459849 93.93093376 96.75744181 96.19727991 89.4465332 97.02270508 C80.38384353 96.62257423 72.03226089 90.90154228 64.5090332 86.33520508 C63.6137793 85.80024414 62.71852539 85.2652832 61.79614258 84.71411133 C56.82515777 81.73505851 51.89278531 78.69773997 46.9699707 75.63989258 C40.33740755 71.55227429 33.57772635 67.72709344 26.7590332 63.96020508 C25.06617187 63.01661133 25.06617187 63.01661133 23.33911133 62.05395508 C18.02412985 59.10763987 12.69326535 56.24333453 7.23950195 53.56176758 C1.05916042 50.50804772 -4.87072553 47.09126379 -10.8034668 43.58520508 C-11.81022461 42.99481445 -12.81698242 42.40442383 -13.85424805 41.79614258 C-15.84126538 40.62912334 -17.82611411 39.45840254 -19.80859375 38.28369141 C-21.71402557 37.15599348 -23.62401341 36.0359567 -25.53857422 34.92382812 C-26.42649658 34.40344971 -27.31441895 33.88307129 -28.22924805 33.34692383 C-29.01468994 32.89019287 -29.80013184 32.43346191 -30.609375 31.96289062 C-34.60278094 29.30391839 -37.14842473 26.17533127 -38.6784668 21.58520508 C-39.51234306 13.96420935 -39.50703407 7.65906228 -34.63549805 1.46411133 C-23.74392017 -8.99267302 -12.07292061 -6.3770463 0 0 Z " fill="#F7F1EF" transform="translate(38.678466796875,130.414794921875)"/>
<path d="M0 0 C2.2663177 2.19005111 3.73916657 4.09490465 5.125 6.9375 C5.62386719 7.94103516 5.62386719 7.94103516 6.1328125 8.96484375 C9.79740877 17.56508994 9.35931381 30.27208581 6.4375 39.0625 C1.87367113 49.48271068 -6.26161974 57.97487725 -16.90746784 62.16915512 C-23.68351423 64.52335258 -30.11675453 64.54522616 -37.23051453 64.48101807 C-38.6424434 64.48276568 -40.05437099 64.48627406 -41.46629173 64.49137473 C-45.3181431 64.50026149 -49.16954426 64.48439881 -53.02133834 64.46426249 C-57.18546386 64.44691023 -61.34956613 64.45283966 -65.51371765 64.45587158 C-72.71908723 64.45796405 -79.92431139 64.44546583 -87.12964439 64.42292023 C-97.54718716 64.39034487 -107.96465996 64.37998756 -118.38224814 64.37496826 C-135.28604053 64.36622428 -152.18975549 64.33963307 -169.09350586 64.30175781 C-185.50919204 64.26501449 -201.92485715 64.23671409 -218.34057617 64.21972656 C-219.85960898 64.21815022 -219.85960898 64.21815022 -221.40932932 64.21654204 C-226.48993643 64.2113217 -231.5705437 64.20626691 -236.65115106 64.20129442 C-278.7674884 64.15986032 -320.88373854 64.08913799 -363 64 C-363 58.39 -363 52.78 -363 47 C-361.29725701 46.99668985 -359.59451403 46.99337971 -357.84017277 46.98996925 C-317.41844529 46.91094773 -276.9967511 46.82172632 -236.57507423 46.71994839 C-231.59961022 46.70742955 -226.624146 46.69499677 -221.64868164 46.68261719 C-220.65815833 46.68015119 -219.66763502 46.6776852 -218.64709585 46.67514448 C-202.60973298 46.63542328 -186.57236306 46.6026731 -170.53497971 46.57250018 C-154.0785445 46.54138365 -137.62213918 46.50277335 -121.16573757 46.45720994 C-111.01168103 46.42933214 -100.85764635 46.40729601 -90.70356183 46.39273749 C-83.74006373 46.38219352 -76.77660793 46.36436904 -69.81314171 46.34083296 C-65.7959112 46.32746955 -61.77873998 46.31730326 -57.76148605 46.31578636 C-54.08046173 46.31432545 -50.39958012 46.30368055 -46.71859967 46.28586559 C-44.76281461 46.27875125 -42.80700159 46.28134584 -40.85120589 46.28433573 C-29.62346667 46.21296301 -18.78944057 44.8176695 -9.953125 37.24609375 C0.1925295 26.51511303 -0.22364152 13.96988304 0 0 Z " fill="#1D74BB" transform="translate(504,444)"/>
<path d="M0 0 C1.86010742 0.73876953 1.86010742 0.73876953 2.91479492 2.53173828 C3.18549805 3.32193359 3.45620117 4.11212891 3.73510742 4.92626953 C5.75703674 10.51064573 8.0961289 15.911098 10.49291992 21.34423828 C11.86010742 24.73876953 11.86010742 24.73876953 12.72729492 28.53955078 C13.49083913 31.88889631 13.49083913 31.88889631 16.12974548 32.83372498 C17.48127464 33.28172203 17.48127464 33.28172203 18.86010742 33.73876953 C19.63846451 34.01636612 20.41682159 34.29396271 21.21876526 34.57997131 C22.03054733 34.85675217 22.84232941 35.13353302 23.67871094 35.41870117 C25.07024132 35.89413109 25.07024132 35.89413109 26.48988342 36.37916565 C27.47959641 36.71568649 28.46930939 37.05220734 29.48901367 37.39892578 C31.02899269 37.92382851 31.02899269 37.92382851 32.6000824 38.45933533 C34.76587613 39.19710831 36.93190222 39.93419949 39.09814453 40.6706543 C42.41473157 41.79859104 45.73023291 42.92967741 49.0456543 44.06103516 C51.15170922 44.77802261 53.25782689 45.49482576 55.36401367 46.21142578 C56.35575089 46.54997086 57.3474881 46.88851593 58.36927795 47.23731995 C59.29381271 47.55112106 60.21834747 47.86492218 61.17089844 48.18823242 C61.98188492 48.46421768 62.7928714 48.74020294 63.62843323 49.02455139 C65.69224042 49.68504589 67.75185159 50.24090341 69.86010742 50.73876953 C69.97483398 50.05298828 70.08956055 49.36720703 70.20776367 48.66064453 C70.95891465 45.29620783 72.06980099 42.20948432 73.29760742 38.98876953 C73.72944336 37.83892578 74.1612793 36.68908203 74.60620117 35.50439453 C75.86010742 32.73876953 75.86010742 32.73876953 77.86010742 31.73876953 C82.20688744 32.94928355 86.42720108 34.53950246 90.66357422 36.08837891 C92.77970317 36.85726411 94.9040525 37.59918844 97.0300293 38.34033203 C98.37892874 38.8282815 99.72725652 39.31781476 101.07495117 39.80908203 C102.30334717 40.25010254 103.53174316 40.69112305 104.79736328 41.14550781 C108.41795109 43.02896385 109.60116721 43.84397375 110.86010742 47.73876953 C110.46986646 55.96659332 106.77075844 63.95308213 103.88745117 71.55126953 C103.39882463 72.85474253 102.91084482 74.15845812 102.42347717 75.46240234 C101.15002548 78.86385634 99.86731234 82.26174381 98.58270264 85.65899658 C97.53193947 88.44254279 96.48778225 91.22854445 95.44394588 94.01469421 C93.28991257 99.76381978 91.13081487 105.51104547 88.96142578 111.25439453 C88.57885117 112.26791992 88.19627655 113.28144531 87.80210876 114.32568359 C86.86010742 116.73876953 86.86010742 116.73876953 85.86010742 118.73876953 C83.12986853 118.84713623 80.403962 118.92623647 77.67260742 118.98876953 C76.90368164 119.02228516 76.13475586 119.05580078 75.3425293 119.09033203 C71.49548473 119.15637571 69.3707964 119.03603625 65.98120117 117.06298828 C63.70434298 114.56808842 62.43441384 112.40135046 61.11010742 109.30126953 C60.70276367 108.37443359 60.29541992 107.44759766 59.87573242 106.49267578 C58.25814239 102.10651819 57.73518833 98.09993492 57.76245117 93.43798828 C57.76728516 91.97329102 57.76728516 91.97329102 57.7722168 90.47900391 C57.78478516 88.96790039 57.78478516 88.96790039 57.79760742 87.42626953 C57.80211914 86.39953125 57.80663086 85.37279297 57.8112793 84.31494141 C57.82302558 81.78949071 57.83945178 79.26416048 57.86010742 76.73876953 C57.04737366 76.46172684 56.23463989 76.18468414 55.39727783 75.89924622 C47.68837223 73.27064758 39.98081823 70.6381299 32.27470779 68.00134754 C28.31414761 66.64632178 24.35310479 65.29274644 20.39086914 63.94262695 C16.55763954 62.6364036 12.72579559 61.32618623 8.8948288 60.0133419 C7.44269916 59.5164601 5.99009918 59.02095041 4.53699493 58.52692604 C-24.77298679 48.55819308 -24.77298679 48.55819308 -32.07739258 33.73876953 C-32.59624023 32.74103516 -33.11508789 31.74330078 -33.6496582 30.71533203 C-34.12983398 29.75369141 -34.61000977 28.79205078 -35.10473633 27.80126953 C-35.54422607 26.92599609 -35.98371582 26.05072266 -36.43652344 25.14892578 C-37.13989258 22.73876953 -37.13989258 22.73876953 -36.4765625 20.53198242 C-34.25659332 17.55377719 -30.85060579 16.56679329 -27.51489258 15.17626953 C-20.13525451 11.94752946 -13.7389215 8.01468037 -7.3190918 3.15649414 C-2.60541285 -0.31805953 -2.60541285 -0.31805953 0 0 Z " fill="#D5DBE9" transform="translate(347.139892578125,309.26123046875)"/>
<path d="M0 0 C0.7270665 0.22208633 1.454133 0.44417267 2.20323181 0.67298889 C4.5999027 1.41214494 6.9899636 2.16984411 9.37890625 2.93359375 C10.2106134 3.19887878 11.04232056 3.46416382 11.89923096 3.73748779 C17.19392214 5.43615982 22.47092273 7.18328128 27.73901367 8.96264648 C29.55455678 9.57296683 31.37232075 10.17671661 33.19213867 10.77416992 C35.87533933 11.65533866 38.55132966 12.55590648 41.2265625 13.4609375 C42.02876724 13.72051743 42.83097198 13.98009735 43.65748596 14.24754333 C50.57846385 16.63206357 56.95903431 19.97981435 60.84570312 26.4296875 C63.3773329 32.31664851 62.94966581 38.70247697 62.91015625 44.99609375 C62.91285665 46.35555294 62.9167436 47.71501024 62.92175293 49.07446289 C62.92762243 51.91213521 62.91916875 54.74930103 62.90039062 57.58691406 C62.87760142 61.20490343 62.89073844 64.82170556 62.91468048 68.43965149 C62.92920844 71.24345676 62.92450084 74.04698547 62.91416931 76.85079956 C62.91024373 78.82705465 62.92228623 80.80332096 62.93469238 82.77954102 C62.8501771 90.92270997 62.1172937 96.69675464 56.5625 102.9921875 C55.98628906 103.44722656 55.41007812 103.90226562 54.81640625 104.37109375 C54.23761719 104.84417969 53.65882813 105.31726563 53.0625 105.8046875 C47.96738732 109.22113197 41.2284506 108.43518511 35.37890625 107.93359375 C29.32102709 106.08022163 25.18737278 101.28942601 22.25439453 95.84692383 C20.98932619 91.63720253 21.13306103 87.62884326 21.18359375 83.2578125 C21.18642365 82.33265335 21.18925354 81.4074942 21.19216919 80.45429993 C21.20333233 77.50976433 21.22842988 74.56553687 21.25390625 71.62109375 C21.26394104 69.62044711 21.27306602 67.61979569 21.28125 65.61914062 C21.30325903 60.72384025 21.33776234 55.82876918 21.37890625 50.93359375 C20.45428589 50.70337524 20.45428589 50.70337524 19.51098633 50.46850586 C11.8662184 48.48213602 4.46708118 45.94978788 -2.9387207 43.22729492 C-4.94487218 42.49195975 -6.9555785 41.77017177 -8.96679688 41.04882812 C-10.2646197 40.57503091 -11.56215645 40.10044918 -12.859375 39.625 C-14.01477783 39.20420166 -15.17018066 38.78340332 -16.3605957 38.34985352 C-22.16351047 35.82924636 -26.54018298 32.89353615 -29.69921875 27.40625 C-31.8345468 21.67886585 -31.87340469 15.16915629 -29.6640625 9.4609375 C-26.71311251 4.44900657 -23.1166147 1.01860286 -17.74609375 -1.31640625 C-11.4597289 -2.82513382 -6.06675015 -1.91522394 0 0 Z " fill="#FED0A2" transform="translate(367.62109375,160.06640625)"/>
<path d="M0 0 C4.55063845 0.61457788 8.52245774 1.81489142 12.8125 3.4375 C23.91785223 7.48110674 34.31179387 8.96173428 46.1171875 9.17578125 C47.38433594 9.19962891 48.65148437 9.22347656 49.95703125 9.24804688 C52.56103308 9.29088439 55.16525078 9.322206 57.76953125 9.34179688 C72.971667 9.67362014 85.29578179 14.37697178 96.375 24.9375 C108.91793311 38.32516125 110.65503677 54.8155484 110.14941406 72.40673828 C109.64565111 81.15015345 107.46547463 89.62810571 105 98 C104.34 98 103.68 98 103 98 C102.71390869 97.42145264 102.42781738 96.84290527 102.13305664 96.24682617 C93.71361713 79.3524787 85.52641118 63.4925406 67.1875 55.6875 C61.67538862 53.87118823 56.04754464 53.27117828 50.3125 52.5625 C33.73616397 50.51253613 12.69696522 45.81162454 1.19140625 32.59375 C-4.16996531 25.42181689 -4.83174098 18.83589771 -4 10 C-2.96045101 6.50457327 -1.61802607 3.26494546 0 0 Z " fill="#609ECE" transform="translate(266,4)"/>
<path d="M0 0 C5.89478471 3.88804949 9.02991654 9.27832897 12.79492188 15.15820312 C15.56456572 19.39122443 18.50049254 23.51573725 21.40698242 27.65551758 C21.85920166 28.30673584 22.3114209 28.9579541 22.77734375 29.62890625 C23.38437134 30.4962439 23.38437134 30.4962439 24.00366211 31.38110352 C25 33 25 33 26 36 C34.25 36 42.5 36 51 36 C51 50.19 51 64.38 51 79 C44.895 79.061875 38.79 79.12375 32.5 79.1875 C30.58896484 79.21481201 28.67792969 79.24212402 26.70898438 79.27026367 C25.17057932 79.27903694 23.63216722 79.28667888 22.09375 79.29296875 C20.92440918 79.3159906 20.92440918 79.3159906 19.73144531 79.33947754 C13.56744524 79.34237779 7.77211307 78.41630545 2.9609375 74.22265625 C2.43757813 73.50980469 1.91421875 72.79695313 1.375 72.0625 C0.71757812 71.17820312 0.06015625 70.29390625 -0.6171875 69.3828125 C-1.4139786 68.2569878 -2.20794027 67.1291584 -3 66 C-3.50305664 65.29069336 -4.00611328 64.58138672 -4.52441406 63.85058594 C-7.49972677 59.65106507 -10.44905515 55.4344766 -13.37890625 51.203125 C-15.71169022 47.83751015 -18.07049899 44.49396844 -20.46484375 41.171875 C-21.00850586 40.41463135 -21.55216797 39.6573877 -22.11230469 38.87719727 C-23.1299699 37.46252906 -24.15243372 36.05129492 -25.18066406 34.64428711 C-29.78693556 28.21503605 -33.09917763 22.1967246 -32 14 C-30.62205983 6.94818854 -26.72897116 3.09536355 -21 -1 C-14.33636239 -4.92983756 -6.49998258 -3.55659424 0 0 Z " fill="#FED0A2" transform="translate(219,137)"/>
<path d="M0 0 C1.92285156 2.30664062 1.92285156 2.30664062 3.890625 5.15625 C4.59960938 6.17847656 5.30859375 7.20070312 6.0390625 8.25390625 C6.76867187 9.32511719 7.49828125 10.39632812 8.25 11.5 C9.36761719 13.10681641 9.36761719 13.10681641 10.5078125 14.74609375 C16 22.72284226 16 22.72284226 16 25 C14.700625 24.9175 13.40125 24.835 12.0625 24.75 C6.71064121 24.75844142 2.53540885 26.18586077 -2 29 C-6.53495011 33.65123088 -8.31445478 37.71661051 -8.5 44.1875 C-8.37326764 49.83342685 -7.57432573 53.65871077 -4.08203125 58.140625 C-0.00087354 61.7853362 4.89145469 63.26513561 10 65 C12.41949424 65.9301783 14.83624475 66.8675293 17.25 67.8125 C19.16601602 68.54337465 21.08244098 69.27318328 23 70 C22.5449559 79.79198017 20.51234004 89.28723084 18.56152344 98.86474609 C17.99453173 101.65188013 17.43807604 104.44097697 16.8828125 107.23046875 C16.52665457 109.00012346 16.1699058 110.76965939 15.8125 112.5390625 C15.64580811 113.37434479 15.47911621 114.20962708 15.30737305 115.07022095 C14.11556036 120.88443964 14.11556036 120.88443964 13 122 C10.47905924 122.08847743 7.98569107 122.11527301 5.46484375 122.09765625 C4.33496788 122.09553383 4.33496788 122.09553383 3.18226624 122.09336853 C0.7673044 122.08775376 -1.64756601 122.07519883 -4.0625 122.0625 C-5.69596221 122.0574869 -7.32942586 122.05292366 -8.96289062 122.04882812 C-12.97529585 122.03777954 -16.98763241 122.02050506 -21 122 C-20.85711146 120.29141784 -20.71053911 118.5831436 -20.5625 116.875 C-20.48128906 115.92367187 -20.40007812 114.97234375 -20.31640625 113.9921875 C-20 111 -20 111 -19.47753906 108.2434082 C-18.83739034 103.89556784 -18.8184115 99.61979412 -18.796875 95.23046875 C-18.78986069 94.28511765 -18.78284637 93.33976654 -18.77561951 92.36576843 C-18.75809834 89.30629737 -18.75176133 86.24701948 -18.75 83.1875 C-18.74932526 82.147005 -18.74865051 81.10651001 -18.74795532 80.03448486 C-18.77153245 57.21138725 -20.81273468 36.03017946 -27 14 C-27.60429044 11.75003324 -28.20848167 9.50003983 -28.8125 7.25 C-29.20596055 5.83267249 -29.60062459 4.41567219 -30 3 C-28.44152344 2.83564453 -28.44152344 2.83564453 -26.8515625 2.66796875 C-19.62216447 1.85930349 -12.85825136 1.02240437 -6.015625 -1.609375 C-3.25845923 -2.14370945 -2.36150824 -1.50208481 0 0 Z " fill="#FD636E" transform="translate(346,134)"/>
<path d="M0 0 C6.58544454 2.14130606 6.58544454 2.14130606 9.578125 4.09375 C10.18140625 4.48433594 10.7846875 4.87492188 11.40625 5.27734375 C12.0146875 5.68082031 12.623125 6.08429688 13.25 6.5 C13.87390625 6.90347656 14.4978125 7.30695313 15.140625 7.72265625 C17.62738694 9.34655467 19.89435456 10.89435456 22 13 C22.24609566 15.47937965 22.24609566 15.47937965 22.24050903 18.66934204 C22.24325836 19.8753154 22.24600769 21.08128876 22.24884033 22.32380676 C22.24176161 23.6672068 22.23449198 25.01060583 22.22705078 26.35400391 C22.22648687 27.76314791 22.22680283 29.1722925 22.22793579 30.58143616 C22.2285111 34.41389128 22.21672803 38.24622196 22.20278788 42.07864809 C22.19031018 46.08118342 22.18911236 50.08372141 22.18673706 54.08627319 C22.18051356 61.66879279 22.16409102 69.25125492 22.14403808 76.83374918 C22.12170609 85.46482036 22.11069246 94.09589425 22.10064721 102.72698712 C22.07972552 120.4846916 22.04413122 138.24233908 22 156 C29.26 156 36.52 156 44 156 C44 156.33 44 156.66 44 157 C37.8944529 157.02464513 31.78893449 157.04283371 25.68334961 157.05493164 C23.60456844 157.05997288 21.52579084 157.06680574 19.44702148 157.07543945 C16.46597414 157.08751422 13.48497351 157.09323024 10.50390625 157.09765625 C9.10078941 157.10539818 9.10078941 157.10539818 7.66932678 157.11329651 C6.37810158 157.11340981 6.37810158 157.11340981 5.06079102 157.11352539 C4.29912125 157.115746 3.53745148 157.11796661 2.75270081 157.12025452 C1 157 1 157 0 156 C-0.09674566 153.98771955 -0.12187008 151.97198631 -0.12025452 149.9573822 C-0.12162918 148.64339951 -0.12300385 147.32941681 -0.12442017 145.97561646 C-0.12088054 144.50579812 -0.11724573 143.03598 -0.11352539 141.56616211 C-0.11324353 140.02908836 -0.11340123 138.49201447 -0.1139679 136.9549408 C-0.11425591 132.7691714 -0.10835852 128.58343041 -0.10139394 124.39766765 C-0.09516109 120.02809844 -0.09455666 115.65852865 -0.09336853 111.28895569 C-0.09025501 103.00872953 -0.08204135 94.7285165 -0.07201904 86.44829613 C-0.06085854 77.02402841 -0.05534761 67.59976008 -0.05032361 58.1754874 C-0.03985875 38.78365081 -0.02225891 19.39182646 0 0 Z " fill="#609ECF" transform="translate(48,213)"/>
<path d="M0 0 C0.66 0 1.32 0 2 0 C2.14367508 0.75310959 2.28735016 1.50621918 2.43537903 2.28215027 C3.79326758 9.39040658 5.16056481 16.49675794 6.53838062 23.60117626 C7.24634465 27.25341017 7.95069138 30.90626374 8.64672852 34.56079102 C9.3189842 38.08972479 10.00079698 41.61669021 10.68918419 45.14251137 C10.94972326 46.48580964 11.20685263 47.82977402 11.46045876 49.17439842 C11.81713746 51.06226649 12.18724127 52.94758296 12.55786133 54.83276367 C12.86763664 56.44159676 12.86763664 56.44159676 13.18367004 58.08293152 C14.05248985 61.1875669 15.09396714 63.40331019 17 66 C19.63379982 67.22411854 21.99469313 68.13287655 24.74609375 68.97265625 C25.51244644 69.22244736 26.27879913 69.47223846 27.06837463 69.729599 C29.5196208 70.52435955 31.97797419 71.29379266 34.4375 72.0625 C36.05717983 72.58230724 37.67632741 73.10377603 39.29492188 73.62695312 C45.1228946 75.5053808 50.95810722 77.36028562 56.80126953 79.19091797 C57.88907715 79.53912598 58.97688477 79.88733398 60.09765625 80.24609375 C61.03230713 80.54056396 61.96695801 80.83503418 62.92993164 81.13842773 C65 82 65 82 66 84 C65.47094727 85.87939453 65.47094727 85.87939453 64.56640625 88.1328125 C64.24736328 88.93847656 63.92832031 89.74414062 63.59960938 90.57421875 C63.25736328 91.41597656 62.91511719 92.25773437 62.5625 93.125 C62.22412109 93.97449219 61.88574219 94.82398438 61.53710938 95.69921875 C60.69823043 97.80232371 59.85228875 99.90230155 59 102 C52.96793976 101.37840292 47.58771884 99.69616428 41.8671875 97.7265625 C40.91232452 97.40215179 39.95746155 97.07774109 38.97366333 96.74349976 C36.96398919 96.05892657 34.95536811 95.37125498 32.94775391 94.68066406 C29.88092959 93.62703715 26.80993845 92.58631633 23.73828125 91.546875 C21.78098725 90.87837298 19.82394705 90.20912728 17.8671875 89.5390625 C16.95250702 89.22957672 16.03782654 88.92009094 15.09542847 88.60122681 C4.23837261 84.844569 4.23837261 84.844569 1.8828125 81.3359375 C1.63273437 80.68882812 1.38265625 80.04171875 1.125 79.375 C0.81046875 78.59382813 0.4959375 77.81265625 0.171875 77.0078125 C-0.21484375 76.01523437 -0.6015625 75.02265625 -1 74 C-1.57516439 72.60034223 -2.15355703 71.20200867 -2.734375 69.8046875 C-5.19381876 63.88493768 -7.63136757 57.9567588 -10 52 C-14.21546759 52.5381448 -16.45942465 53.85915609 -19.75 56.5 C-24.5537826 60.12081029 -29.49319464 63.06956576 -34.8125 65.875 C-35.88806152 66.44637695 -35.88806152 66.44637695 -36.98535156 67.02929688 C-40.91095075 69.06614713 -44.74486857 70.73080852 -49 72 C-50.00460531 69.87717331 -51.00355602 67.75166979 -52 65.625 C-52.556875 64.44164062 -53.11375 63.25828125 -53.6875 62.0390625 C-55 59 -55 59 -55 57 C-54.42668945 56.68361572 -53.85337891 56.36723145 -53.26269531 56.04125977 C-32.17062818 44.34671111 -10.18393594 31.72662598 -1.84375 7.6640625 C-1.13671608 5.11743108 -0.50798063 2.59281782 0 0 Z " fill="#94BDDE" transform="translate(358,258)"/>
<path d="M0 0 C0.96061844 0.02009628 1.92123688 0.04019257 2.91096497 0.06089783 C4.44716743 0.10145042 4.44716743 0.10145042 6.0144043 0.14282227 C7.07273972 0.16643326 8.13107513 0.19004425 9.22148132 0.21437073 C12.59400538 0.29080077 15.96628779 0.37491413 19.33862305 0.45922852 C21.62832486 0.51246987 23.91803838 0.56521012 26.20776367 0.61743164 C31.81408061 0.7454483 37.42000518 0.88385577 43.02612305 1.02172852 C43.02612305 14.55172852 43.02612305 28.08172852 43.02612305 42.02172852 C15.63612305 42.02172852 -11.75387695 42.02172852 -39.97387695 42.02172852 C-39.97387695 30.43980099 -37.54717124 22.21427773 -29.72387695 13.52172852 C-21.12349847 5.70320263 -12.00326201 -0.28503788 0 0 Z " fill="#FD7F86" transform="translate(227.973876953125,385.978271484375)"/>
<path d="M0 0 C6.01259196 1.96370848 12.01016757 3.96799996 18 6 C18.68642578 6.22913086 19.37285156 6.45826172 20.08007812 6.69433594 C21.87235173 7.29819428 23.65532288 7.92946424 25.4375 8.5625 C26.44683594 8.91441406 27.45617187 9.26632812 28.49609375 9.62890625 C31.77582935 11.42483011 32.76926094 12.43881208 34 16 C33.32533311 24.27868264 29.94332641 32.12820532 27.02734375 39.8125 C26.53871721 41.115973 26.0507374 42.41968859 25.56336975 43.72363281 C24.28991806 47.12508681 23.00720492 50.52297427 21.72259521 53.92022705 C20.67183205 56.70377326 19.62767482 59.48977492 18.58383846 62.27592468 C16.42980515 68.02505025 14.27070745 73.77227594 12.10131836 79.515625 C11.71874374 80.52915039 11.33616913 81.54267578 10.94200134 82.58691406 C10 85 10 85 9 87 C6.2697611 87.1083667 3.54385457 87.18746694 0.8125 87.25 C0.04357422 87.28351563 -0.72535156 87.31703125 -1.51757812 87.3515625 C-5.36462269 87.41760618 -7.48931102 87.29726672 -10.87890625 85.32421875 C-13.15576444 82.82931889 -14.42569358 80.66258093 -15.75 77.5625 C-16.36101562 76.17224609 -16.36101562 76.17224609 -16.984375 74.75390625 C-19.15731778 68.86188833 -19.27757821 63.15920945 -19.375 56.9375 C-19.41238281 56.05900391 -19.44976562 55.18050781 -19.48828125 54.27539062 C-19.57210118 47.87247904 -18.16174506 43.16967725 -15.52392578 37.36694336 C-13.77713039 33.50759456 -12.23372504 29.59327881 -10.703125 25.64453125 C-10.1317958 24.18413312 -9.56017919 22.72384739 -8.98828125 21.26367188 C-8.10950607 19.01463264 -7.23159523 16.7652631 -6.35498047 14.51538086 C-5.49413116 12.30753613 -4.63009936 10.10095862 -3.765625 7.89453125 C-3.50211243 7.21550247 -3.23859985 6.53647369 -2.96710205 5.83686829 C-1.11335997 1.11335997 -1.11335997 1.11335997 0 0 Z " fill="#FC8087" transform="translate(424,341)"/>
<path d="M0 0 C0 0.33 0 0.66 0 1 C-0.969375 1.12375 -1.93875 1.2475 -2.9375 1.375 C-4.4534375 1.684375 -4.4534375 1.684375 -6 2 C-7.76728238 5.53456476 -7.51372459 9.14122777 -7 13 C-4.78535038 19.53894392 -2.08926399 23.62882199 4 27 C6.87978139 28.21854791 9.82075305 29.19650696 12.79296875 30.1640625 C14.03473625 30.58128067 14.03473625 30.58128067 15.30158997 31.00692749 C17.92750601 31.88803045 20.55713131 32.75728926 23.1875 33.625 C25.82801483 34.50140368 28.46760253 35.38037878 31.10554504 36.26449585 C32.74218232 36.81250237 34.380392 37.35584039 36.02030945 37.89395142 C39.33760149 39.00035396 42.07368001 40.04912001 45 42 C45.30112702 45.03630039 45.41686994 47.87901861 45.40625 50.91796875 C45.41708618 51.80857498 45.42792236 52.69918121 45.43908691 53.61677551 C45.47344459 56.47375673 45.48895087 59.33033915 45.5 62.1875 C45.51461333 65.93137107 45.54844409 69.67435715 45.59375 73.41796875 C45.59072876 74.27239059 45.58770752 75.12681244 45.58459473 76.00712585 C45.65218021 81.44725249 46.57483004 85.12693374 49 90 C49.33 90.99 49.66 91.98 50 93 C51.83284443 94.12516085 51.83284443 94.12516085 54 95 C54.59683594 95.33644531 55.19367188 95.67289062 55.80859375 96.01953125 C58.35328527 97.15806524 60.47763137 97.40612879 63.25 97.625 C64.14203125 97.69976562 65.0340625 97.77453125 65.953125 97.8515625 C66.62859375 97.90054688 67.3040625 97.94953125 68 98 C66.62523555 103.19355461 63.25658407 106.00427491 59 109 C53.39070825 110.86976392 46.44744068 111.05472398 40.765625 109.31640625 C35.89606987 106.72002841 32.46662916 102.72151096 29.87548828 97.91333008 C28.61041994 93.70360878 28.75415478 89.69524951 28.8046875 85.32421875 C28.8075174 84.3990596 28.81034729 83.47390045 28.81326294 82.52070618 C28.82442608 79.57617058 28.84952363 76.63194312 28.875 73.6875 C28.88503479 71.68685336 28.89415977 69.68620194 28.90234375 67.68554688 C28.92435278 62.7902465 28.95885609 57.89517543 29 53 C28.07537964 52.76978149 28.07537964 52.76978149 27.13208008 52.53491211 C19.48731215 50.54854227 12.08817493 48.01619413 4.68237305 45.29370117 C2.67622157 44.558366 0.66551525 43.83657802 -1.34570312 43.11523438 C-2.64352595 42.64143716 -3.9410627 42.16685543 -5.23828125 41.69140625 C-6.39368408 41.27060791 -7.54908691 40.84980957 -8.73950195 40.41625977 C-14.54241672 37.89565261 -18.91908923 34.9599424 -22.078125 29.47265625 C-24.21345305 23.7452721 -24.25231094 17.23556254 -22.04296875 11.52734375 C-19.09201876 6.51541282 -15.49552095 3.08500911 -10.125 0.75 C-6.65345752 -0.08317019 -3.55759795 -0.14230392 0 0 Z " fill="#FEBC85" transform="translate(360,158)"/>
<path d="M0 0 C4.76546176 0.04465215 9.52966053 0.1149904 14.29443359 0.20751953 C15.90989032 0.23546639 17.52547712 0.25680938 19.14111328 0.27099609 C36.08071373 0.42852493 49.72692297 3.88156141 62.375 15.9375 C74.91793311 29.32516125 76.65503677 45.8155484 76.14941406 63.40673828 C75.64565111 72.15015345 73.46547463 80.62810571 71 89 C70.34 89 69.68 89 69 89 C68.71390869 88.42145264 68.42781738 87.84290527 68.13305664 87.24682617 C59.07177634 68.15360657 59.07177634 68.15360657 44.125 53.75 C39.81290266 50.64857817 39.14238208 47.84386322 38.1875 42.6875 C37.98400127 41.36653767 37.78472737 40.04491704 37.58984375 38.72265625 C35.66130712 26.5511635 28.64487219 17.66662536 19.46484375 9.7890625 C13.66822546 5.58169138 6.83218589 3.0311904 0 1 C0 0.67 0 0.34 0 0 Z " fill="#1E75BB" transform="translate(300,13)"/>
<path d="M0 0 C0.20882812 1.299375 0.41765625 2.59875 0.6328125 3.9375 C1.87932433 9.50655807 4.55282618 13.43657971 7.875 18 C8.45217773 18.81670166 9.02935547 19.63340332 9.62402344 20.47485352 C10.81919203 22.16344481 12.02039727 23.84777928 13.22753906 25.52783203 C14.90665481 27.86980532 16.56318032 30.22573719 18.2109375 32.58984375 C22.73329783 39.07069526 27.31220081 45.51256439 32 51.875 C32.680625 52.80054688 33.36125 53.72609375 34.0625 54.6796875 C36.76927831 57.92127281 38.99245024 59.66415008 43 61 C45.20959253 61.15109093 47.42300047 61.24873801 49.63671875 61.31640625 C50.93544922 61.35830078 52.23417969 61.40019531 53.57226562 61.44335938 C54.94400761 61.48316987 56.31575244 61.52288216 57.6875 61.5625 C59.07097645 61.60570835 60.45444027 61.64932339 61.83789062 61.69335938 C65.22513714 61.79957965 68.61255509 61.90030688 72 62 C72 67.61 72 73.22 72 79 C66.7341992 79.06915205 61.46999588 79.12879947 56.20410156 79.16479492 C54.41563557 79.17981184 52.62720597 79.20023158 50.83886719 79.22631836 C48.25706969 79.26301615 45.67576221 79.27979745 43.09375 79.29296875 C41.90888 79.31619453 41.90888 79.31619453 40.70007324 79.33988953 C34.54780908 79.34172337 28.76157225 78.40711758 23.9609375 74.22265625 C23.43757813 73.50980469 22.91421875 72.79695313 22.375 72.0625 C21.71757812 71.17820312 21.06015625 70.29390625 20.3828125 69.3828125 C19.5860214 68.2569878 18.79205973 67.1291584 18 66 C17.49694336 65.29069336 16.99388672 64.58138672 16.47558594 63.85058594 C13.50027323 59.65106507 10.55094485 55.4344766 7.62109375 51.203125 C5.28830978 47.83751015 2.92950101 44.49396844 0.53515625 41.171875 C-0.00850586 40.41463135 -0.55216797 39.6573877 -1.11230469 38.87719727 C-2.1299699 37.46252906 -3.15243372 36.05129492 -4.18066406 34.64428711 C-8.77709336 28.22877341 -12.12660778 22.18355375 -11 14 C-9.82432655 8.79764496 -6.29896831 0 0 0 Z " fill="#FEBC86" transform="translate(198,137)"/>
<path d="M0 0 C12.14329853 7.19225567 19.00885151 17.70413428 25.6875 29.875 C26.14608398 30.68340332 26.60466797 31.49180664 27.07714844 32.32470703 C30.1516476 38.13062302 30.1516476 38.13062302 29.4296875 42.26953125 C28.95789063 43.17058594 28.48609375 44.07164063 28 45 C27.60683594 45.81082031 27.21367187 46.62164062 26.80859375 47.45703125 C18.70741072 61.37444825 8.07224125 68.97697491 -7.30078125 73.0625 C-14.78207181 74.77250927 -22.38609319 74.40073194 -30 74 C-28.90945313 73.17048828 -28.90945313 73.17048828 -27.796875 72.32421875 C-20.22868769 66.03501282 -14.74808423 58.16505879 -10.125 49.5625 C-9.76825195 48.90805908 -9.41150391 48.25361816 -9.04394531 47.5793457 C-3.37097777 36.55822945 -1.36974813 25.47271558 -0.75 13.1875 C-0.67265625 11.91068359 -0.5953125 10.63386719 -0.515625 9.31835938 C-0.32952223 6.21276938 -0.15787547 3.10713053 0 0 Z " fill="#FEBC85" transform="translate(340,63)"/>
<path d="M0 0 C7.59 0 15.18 0 23 0 C23 13.53 23 27.06 23 41 C15.41 41 7.82 41 0 41 C0 27.47 0 13.94 0 0 Z " fill="#FD636E" transform="translate(248,387)"/>
<path d="M0 0 C4.20404236 1.56059148 8.09498351 3.56385829 12 5.75 C12.60328125 6.07226562 13.2065625 6.39453125 13.828125 6.7265625 C18.98721755 9.6201405 22.30434678 13.09316591 25.3125 18.25 C26.99489698 24.97958792 26.75756304 31.18050256 23.2578125 37.25 C19.40762466 42.60678309 14.26915438 45.4564582 8 47 C-3.37289814 48.28403689 -12.63781943 41.72669465 -22 36 C-18.6244322 34.87481073 -16.41051748 35.09936597 -12.875 35.3125 C-5.99244162 35.35853718 -1.93448165 33.77496177 3 29 C6.6904147 25.05887778 7.28300191 21.25724103 7.5 15.9375 C7.32807594 10.83708633 6.43263145 7.92300737 3 4 C2.4225 3.21625 1.845 2.4325 1.25 1.625 C0.8375 1.08875 0.425 0.5525 0 0 Z " fill="#D7DDEA" transform="translate(124,180)"/>
<path d="M0 0 C6.01259196 1.96370848 12.01016757 3.96799996 18 6 C18.68642578 6.22913086 19.37285156 6.45826172 20.08007812 6.69433594 C21.87235173 7.29819428 23.65532288 7.92946424 25.4375 8.5625 C26.44683594 8.91441406 27.45617187 9.26632812 28.49609375 9.62890625 C31.60934876 11.33366835 32.6341516 12.74113364 34 16 C33.90957287 21.70595194 31.83444028 27.10414862 29 32 C24.82455859 31.404836 21.08059805 30.4486472 17.12109375 29.00390625 C16.03505859 28.61009766 14.94902344 28.21628906 13.83007812 27.81054688 C12.71052734 27.39869141 11.59097656 26.98683594 10.4375 26.5625 C9.31408203 26.15451172 8.19066406 25.74652344 7.03320312 25.32617188 C2.32844583 23.61255558 -2.35862434 21.87952161 -7 20 C-6.3899268 15.43138367 -5.18479121 11.47294276 -3.5 7.1875 C-3.0565625 6.04667969 -2.613125 4.90585937 -2.15625 3.73046875 C-1 1 -1 1 0 0 Z " fill="#FD646F" transform="translate(424,341)"/>
<path d="M0 0 C1.40572266 -0.02900391 1.40572266 -0.02900391 2.83984375 -0.05859375 C7.5155484 -0.02543272 9.79795318 0.09692724 13.62109375 2.97265625 C15.5 5.625 15.5 5.625 16.0625 8.6875 C15.38178485 12.24234581 14.29927541 13.402046 11.5 15.625 C7.87568203 17.43715899 3.67895462 16.93811698 -0.3125 17 C-1.66698242 17.05607422 -1.66698242 17.05607422 -3.04882812 17.11328125 C-7.67690136 17.17449015 -9.80218936 17.15121786 -13.59765625 14.2890625 C-15.5 11.625 -15.5 11.625 -16.125 8.625 C-14.29881565 -0.14068488 -7.46668105 -0.15405807 0 0 Z " fill="#65A1D0" transform="translate(63.5,413.375)"/>
<path d="M0 0 C1.00675781 -0.00515625 2.01351562 -0.0103125 3.05078125 -0.015625 C4.61892578 0.00757813 4.61892578 0.00757813 6.21875 0.03125 C7.26417969 0.01578125 8.30960938 0.0003125 9.38671875 -0.015625 C10.39347656 -0.01046875 11.40023437 -0.0053125 12.4375 0 C13.81325195 0.00676758 13.81325195 0.00676758 15.21679688 0.01367188 C18.47520816 0.68773822 19.6753446 1.95417172 21.71875 4.53125 C22.28125 7.46875 22.28125 7.46875 21.71875 10.53125 C19.62587542 13.54197423 17.9824242 15.27877135 14.31030273 16.01245117 C11.40973804 16.20520452 8.56242532 16.21304821 5.65625 16.15625 C4.16641602 16.18525391 4.16641602 16.18525391 2.64648438 16.21484375 C-4.56379251 16.1662897 -4.56379251 16.1662897 -7.93359375 13.18359375 C-9.58040033 9.94248748 -9.89180622 8.11826779 -9.28125 4.53125 C-6.41843219 0.91246422 -4.57642067 0.02251226 0 0 Z " fill="#619ECF" transform="translate(57.28125,450.46875)"/>
</svg>
